<mxfile host="app.diagrams.net" agent="Mozilla/5.0 (Windows NT 10.0; Win64; x64) AppleWebKit/537.36 (KHTML, like Gecko) Chrome/136.0.0.0 Safari/537.36" version="26.1.1">
  <diagram name="Page-1" id="T_zbmvKe9Zy14KE6y2np">
    <mxGraphModel dx="1082" dy="1728" grid="1" gridSize="10" guides="1" tooltips="1" connect="1" arrows="1" fold="1" page="1" pageScale="1" pageWidth="850" pageHeight="1100" math="0" shadow="0">
      <root>
        <mxCell id="0" />
        <mxCell id="1" parent="0" />
        <mxCell id="19xzYETYqb3-DhoNCfy9-17" value="" style="edgeStyle=orthogonalEdgeStyle;rounded=0;orthogonalLoop=1;jettySize=auto;html=1;" edge="1" parent="1" source="19xzYETYqb3-DhoNCfy9-9" target="19xzYETYqb3-DhoNCfy9-16">
          <mxGeometry relative="1" as="geometry" />
        </mxCell>
        <mxCell id="19xzYETYqb3-DhoNCfy9-9" value="double click edge" style="rounded=1;whiteSpace=wrap;html=1;" vertex="1" parent="1">
          <mxGeometry x="675" y="-100" width="120" height="60" as="geometry" />
        </mxCell>
        <mxCell id="19xzYETYqb3-DhoNCfy9-14" value="" style="edgeStyle=orthogonalEdgeStyle;rounded=0;orthogonalLoop=1;jettySize=auto;html=1;" edge="1" parent="1" source="19xzYETYqb3-DhoNCfy9-10" target="19xzYETYqb3-DhoNCfy9-13">
          <mxGeometry relative="1" as="geometry" />
        </mxCell>
        <mxCell id="19xzYETYqb3-DhoNCfy9-10" value="&lt;span style=&quot;font-size: 12px;&quot;&gt;datastory.dev/table/&amp;lt;edge.id&amp;gt;&lt;/span&gt;" style="rounded=1;whiteSpace=wrap;html=1;" vertex="1" parent="1">
          <mxGeometry x="168" y="330" width="290" height="60" as="geometry" />
        </mxCell>
        <mxCell id="19xzYETYqb3-DhoNCfy9-12" value="open table in new tab&amp;nbsp;" style="text;html=1;align=center;verticalAlign=middle;resizable=0;points=[];autosize=1;strokeColor=none;fillColor=none;" vertex="1" parent="1">
          <mxGeometry x="363" y="120" width="150" height="30" as="geometry" />
        </mxCell>
        <mxCell id="19xzYETYqb3-DhoNCfy9-13" value="&lt;span style=&quot;text-wrap-mode: nowrap;&quot;&gt;TableNodeComponent&amp;nbsp;&lt;/span&gt;" style="whiteSpace=wrap;html=1;rounded=1;" vertex="1" parent="1">
          <mxGeometry x="243" y="470" width="140" height="70" as="geometry" />
        </mxCell>
        <mxCell id="19xzYETYqb3-DhoNCfy9-15" value="open the TableNodeComponent in full-screen mode" style="text;html=1;align=center;verticalAlign=middle;resizable=0;points=[];autosize=1;strokeColor=none;fillColor=none;" vertex="1" parent="1">
          <mxGeometry x="363" y="420" width="320" height="30" as="geometry" />
        </mxCell>
        <mxCell id="19xzYETYqb3-DhoNCfy9-19" style="edgeStyle=orthogonalEdgeStyle;rounded=0;orthogonalLoop=1;jettySize=auto;html=1;entryX=0.5;entryY=0;entryDx=0;entryDy=0;" edge="1" parent="1" source="19xzYETYqb3-DhoNCfy9-16" target="19xzYETYqb3-DhoNCfy9-10">
          <mxGeometry relative="1" as="geometry" />
        </mxCell>
        <mxCell id="19xzYETYqb3-DhoNCfy9-20" style="edgeStyle=orthogonalEdgeStyle;rounded=0;orthogonalLoop=1;jettySize=auto;html=1;" edge="1" parent="1" source="19xzYETYqb3-DhoNCfy9-16" target="19xzYETYqb3-DhoNCfy9-21">
          <mxGeometry relative="1" as="geometry">
            <mxPoint x="1070" y="300" as="targetPoint" />
          </mxGeometry>
        </mxCell>
        <mxCell id="19xzYETYqb3-DhoNCfy9-16" value="&lt;div&gt;&lt;span style=&quot;font-size: 12px;&quot;&gt;&amp;nbsp; &amp;nbsp; &amp;nbsp; &amp;lt;DataStory&lt;/span&gt;&lt;/div&gt;&lt;div&gt;&lt;span style=&quot;font-size: 12px;&quot;&gt;&amp;nbsp; &amp;nbsp; &amp;nbsp; &amp;nbsp; client={client}&lt;/span&gt;&lt;/div&gt;&lt;div&gt;&lt;span style=&quot;font-size: 12px;&quot;&gt;&amp;nbsp; &amp;nbsp; &amp;nbsp; &amp;nbsp; onEdgeDoubleClick={(edgeId) =&amp;gt; {&lt;/span&gt;&lt;/div&gt;&lt;div&gt;&lt;span style=&quot;font-size: 12px;&quot;&gt;&amp;nbsp; &amp;nbsp; &amp;nbsp; &amp;nbsp; &amp;nbsp; &amp;nbsp;//&amp;nbsp;&lt;/span&gt;&lt;span style=&quot;text-align: center; text-wrap-mode: nowrap; background-color: transparent; color: light-dark(rgb(0, 0, 0), rgb(255, 255, 255));&quot;&gt;open table in new tab&amp;nbsp;&lt;/span&gt;&lt;/div&gt;&lt;div&gt;&lt;span style=&quot;font-size: 12px;&quot;&gt;&amp;nbsp; &amp;nbsp; &amp;nbsp; &amp;nbsp; }}&lt;/span&gt;&lt;/div&gt;&lt;div&gt;&lt;span style=&quot;font-size: 12px;&quot;&gt;&amp;nbsp; &amp;nbsp; &amp;nbsp; &amp;gt;&lt;/span&gt;&lt;/div&gt;&lt;div&gt;&lt;span style=&quot;background-color: transparent; color: light-dark(rgb(0, 0, 0), rgb(255, 255, 255));&quot;&gt;&amp;nbsp; &amp;nbsp; &amp;nbsp; &amp;lt;/DataStory&amp;gt;&lt;/span&gt;&lt;/div&gt;" style="rounded=1;whiteSpace=wrap;html=1;align=left;" vertex="1" parent="1">
          <mxGeometry x="595" y="90" width="280" height="150" as="geometry" />
        </mxCell>
        <mxCell id="19xzYETYqb3-DhoNCfy9-18" value="trigger&amp;nbsp;&amp;nbsp;&lt;span style=&quot;text-wrap-mode: wrap;&quot;&gt;onEdgeDoubleClick event in DataStory&lt;/span&gt;" style="text;html=1;align=center;verticalAlign=middle;resizable=0;points=[];autosize=1;strokeColor=none;fillColor=none;" vertex="1" parent="1">
          <mxGeometry x="700" width="290" height="30" as="geometry" />
        </mxCell>
        <mxCell id="19xzYETYqb3-DhoNCfy9-21" value="" style="rounded=1;whiteSpace=wrap;html=1;" vertex="1" parent="1">
          <mxGeometry x="1010" y="270" width="120" height="60" as="geometry" />
        </mxCell>
      </root>
    </mxGraphModel>
  </diagram>
</mxfile>
